<?xml version="1.0" encoding="UTF-8"?>
<svg width="101px" height="81px" viewBox="0 0 101 81" version="1.1" xmlns="http://www.w3.org/2000/svg" xmlns:xlink="http://www.w3.org/1999/xlink">
    <title>Group</title>
    <g id="No-transaction" stroke="none" stroke-width="1" fill="none" fill-rule="evenodd">
        <g id="iPhone-13-Consulta-Copy-52" transform="translate(-145.000000, -508.000000)">
            <g id="Group" transform="translate(145.000000, 508.837793)">
                <g id="Group-4" fill="#E8E6DF">
                    <path d="M10.2920493,53.7375289 L10.2920493,64.7093698 C10.2920493,66.8689191 11.7120765,68.7722176 13.787199,69.3923056 L49.091741,79.9553187 C50.0102086,80.2311702 50.9897914,80.2311702 51.908259,79.9553187 L87.212801,69.3923056 C89.287148,68.7726867 90.7079507,66.8689621 90.7079507,64.7093698 L90.7079507,49.0663298 C90.7079507,48.526164 90.2688845,48.088273 89.7272689,48.088273 C89.1856534,48.088273 88.7465872,48.526164 88.7465872,49.0663298 L88.7465872,64.7093698 C88.7465872,66.004317 87.8933941,67.1466873 86.6498897,67.520305 L51.3453476,78.0833181 C50.7938203,78.2476081 50.2061797,78.2476081 49.6546524,78.0833181 L14.3501103,67.520305 C13.1062527,67.1468273 12.2544795,66.0048986 12.2534128,64.7093698 L12.2534128,53.7375289 C12.2534128,53.1973631 11.8143466,52.7594722 11.2727311,52.7594722 C10.7311155,52.7594722 10.2920493,53.1973631 10.2920493,53.7375289 L10.2920493,53.7375289 Z" id="Path"></path>
                    <path d="M8.00902228,31.5747625 L0.504845736,42.6698385 C-0.0130629451,43.433088 -0.14075664,44.3948684 0.160125786,45.266246 C0.461008211,46.1376236 1.15540517,46.8170576 2.03470922,47.1004357 L37.3294445,58.5378316 C38.5758657,58.9416838 39.9398829,58.4752042 40.6755305,57.3935052 L51.3120045,41.7406846 C51.4848851,41.4860212 51.5275948,41.1650917 51.4273081,40.8742693 C51.3270213,40.5834468 51.0954191,40.3566049 50.80205,40.2618628 L11.574781,27.5666859 C11.0698981,27.4328821 10.5482969,27.7164526 10.3874902,28.2121611 C10.2266835,28.7078695 10.4828912,29.2424105 10.9706811,29.428906 L48.956407,41.7211235 L39.0515216,56.2961255 C38.8063628,56.6571641 38.3511763,56.8127419 37.9355058,56.6775676 L2.64077053,45.2401717 C2.3480283,45.1452561 2.11695809,44.9187637 2.01672925,44.6284936 C1.91650041,44.3382235 1.9587445,44.0178615 2.13081603,43.763306 L9.63499258,32.66823 C9.83792206,32.3786268 9.86846689,32.0023841 9.71489667,31.6839937 C9.56132644,31.3656032 9.24751706,31.154566 8.89398356,31.1319284 C8.54045006,31.1092908 8.20215707,31.2785724 8.00902228,31.5747625 L8.00902228,31.5747625 Z" id="Path"></path>
                    <path d="M83.84514,29.3721787 L50.19795,40.2618628 C49.8557441,40.3622583 49.5951835,40.6400501 49.5175392,40.98727 C49.4398949,41.3344899 49.5574129,41.6963746 49.824418,41.9322718 C50.0914231,42.168169 50.4658034,42.2408732 50.80205,42.1221267 L84.4492399,31.2343988 C84.9648579,31.0680277 85.2476165,30.5162851 85.0807989,30.0020472 C84.9139813,29.4878094 84.360758,29.2058076 83.84514,29.3721787 Z" id="Path"></path>
                    <path d="M52.4652862,45.8270058 L60.3244695,57.3935052 C61.0599808,58.4752359 62.4231284,58.940791 63.6705555,58.5378316 L98.9652908,47.1004357 C99.8445948,46.8170576 100.538992,46.1376236 100.839874,45.266246 C101.140757,44.3948684 101.013063,43.433088 100.495154,42.6698385 L90.5412348,27.9500841 C90.2370455,27.5030817 89.6279471,27.3850843 89.1780872,27.6860088 C88.7298851,27.9893839 88.611571,28.5968519 88.9133031,29.0455077 L98.869184,43.763306 C99.0395804,44.0182702 99.0808758,44.3379472 98.9808398,44.6276587 C98.8808039,44.9173702 98.650904,45.1439054 98.3592295,45.2401717 L63.0644942,56.6775676 C62.6488237,56.8127419 62.1936372,56.6571641 61.9484784,56.2961255 L54.0892951,44.7296261 C53.7854488,44.2823688 53.1755859,44.1654519 52.7271282,44.4684849 C52.2786705,44.771518 52.1614398,45.3797485 52.4652862,45.8270058 L52.4652862,45.8270058 Z M17.5334032,27.4943097 L50.8040113,16.6926507 C51.0962488,16.5958323 51.3262373,16.3682306 51.4255779,16.0775346 C51.5249186,15.7868386 51.4821691,15.4665314 51.3100431,15.2118728 L41.8150827,1.28434434 C41.0792568,0.205285188 39.7172998,-0.259442266 38.4729193,0.143930144 L3.17622275,11.581326 C2.29844389,11.8672625 1.60588257,12.547132 1.30533299,13.41793 C1.00478341,14.288728 1.13102367,15.24969 1.64635926,16.0138793 L10.4587652,29.0455077 C10.7707373,29.4702239 11.3634416,29.5732144 11.8010531,29.2787488 C12.2386646,28.9842831 12.3647943,28.3975943 12.0866969,27.9500841 L3.27232956,14.9204118 C3.10029412,14.6655404 3.05806412,14.344957 3.1582533,14.0544175 C3.25844248,13.7638779 3.48945306,13.5370147 3.78228406,13.44159 L39.0789806,2.00419412 C39.4936283,1.86960529 39.9475769,2.02423609 40.1930351,2.38368015 L48.9544456,15.2353461 L16.9273419,25.6340457 C16.4180216,25.805214 16.1417358,26.3533456 16.3078207,26.8631319 C16.4739056,27.3729183 17.0204747,27.6544026 17.5334032,27.4943097 L17.5334032,27.4943097 Z" id="Shape"></path>
                    <path d="M50.1959887,16.6926507 L89.4232576,29.4269499 C89.8395125,29.5631059 90.2958276,29.407416 90.5412348,29.0455077 L99.3536407,16.0138793 C99.8689763,15.24969 99.9952166,14.288728 99.694667,13.41793 C99.3941174,12.547132 98.7015561,11.8672625 97.8237772,11.581326 L62.5270807,0.143930144 C61.2827002,-0.259442266 59.9207432,0.205285188 59.1849173,1.28434434 L52.324068,11.3465924 C52.0191385,11.7933095 52.135052,12.4019779 52.582968,12.7060912 C53.0308841,13.0102046 53.641186,12.8946014 53.9461156,12.4478843 L60.8069649,2.38368015 C61.0524231,2.02423609 61.5063717,1.86960529 61.9210194,2.00419412 L97.2177159,13.44159 C97.5094817,13.5383594 97.7393267,13.7652649 97.8393241,14.0552484 C97.9393215,14.3452319 97.8980366,14.6651336 97.7276704,14.9204118 L89.3271508,27.3397767 L50.8040113,14.8323867 C50.2889349,14.6649354 49.7352726,14.9456234 49.5673717,15.4593211 C49.3994709,15.9730188 49.6809123,16.5251993 50.1959887,16.6926507 L50.1959887,16.6926507 Z" id="Path"></path>
                </g>
                <polygon id="Path" fill="#EAF4FD" points="80.2087721 28.4938837 50.5 38.1062256 20.7912279 28.4938837 50.5 18.8482878"></polygon>
            </g>
        </g>
    </g>
</svg>